<svg width="24" height="24" viewBox="0 0 24 24" fill="none" xmlns="http://www.w3.org/2000/svg">
<g clip-path="url(#clip0_273_303)">
<path d="M4.25 11.5L1.5 6.5L4.25 1.5H9.75L12.5 6.5L9.75 11.5H4.25ZM15.75 11.5L14 8.5L15.75 5.5H19.25L21 8.5L19.25 11.5H15.75ZM5.5 13.5H16.5V19.5H5.5V13.5ZM16.5 16.498L21.5 13.5V19.5L16.5 16.498Z" fill="white"/>
<path d="M21.5 16.5V19.5L16.5 16.5C16.5 16.5 21.469 16.469 21.5 16.5ZM5.5 16.5H16.5V19.5H5.5V16.5ZM19.25 5.5L15.75 11.5H19.25L21 8.5L19.25 5.5ZM9.75 1.5L4.25 11.5H9.75L12.5 6.5L9.75 1.5Z" fill="#D0D1FB"/>
<path d="M4.25 11.5L1.5 6.5L4.25 1.5H9.75L12.5 6.5L9.75 11.5H4.25ZM15.75 11.5L14 8.5L15.75 5.5H19.25L21 8.5L19.25 11.5H15.75ZM5.5 13.5H16.5V19.5H5.5V13.5Z" stroke="#6366F1" stroke-width="1.5" stroke-linejoin="round"/>
<path d="M6.5 23.5L10.5 19.5L14.5 23.5" stroke="#6366F1" stroke-width="1.5" stroke-linecap="round" stroke-linejoin="round"/>
<path d="M16.5 16.498L21.5 13.5V19.5L16.5 16.498Z" stroke="#6366F1" stroke-width="1.5" stroke-linejoin="round"/>
<path d="M6.99966 5.5C6.9467 5.50022 6.89599 5.52144 6.85866 5.559L6.05866 6.359C6.04006 6.37757 6.02531 6.39963 6.01525 6.42391C6.00518 6.44819 6 6.47422 6 6.5005C6 6.52678 6.00518 6.55281 6.01525 6.57709C6.02531 6.60137 6.04006 6.62343 6.05866 6.642L6.85866 7.442C6.87723 7.4606 6.89929 7.47535 6.92357 7.48541C6.94785 7.49548 6.97387 7.50066 7.00016 7.50066C7.02644 7.50066 7.05247 7.49548 7.07675 7.48541C7.10102 7.47535 7.12308 7.4606 7.14166 7.442L7.94166 6.642C7.96025 6.62343 7.975 6.60137 7.98507 6.57709C7.99513 6.55281 8.00031 6.52678 8.00031 6.5005C8.00031 6.47422 7.99513 6.44819 7.98507 6.42391C7.975 6.39963 7.96025 6.37757 7.94166 6.359L7.14166 5.559C7.12305 5.54028 7.10093 5.52543 7.07655 5.51531C7.05218 5.50518 7.02605 5.49998 6.99966 5.5ZM17.4997 7.5C17.4467 7.50022 17.396 7.52144 17.3587 7.559L16.5587 8.359C16.5401 8.37757 16.5253 8.39963 16.5152 8.42391C16.5052 8.44819 16.5 8.47422 16.5 8.5005C16.5 8.52678 16.5052 8.55281 16.5152 8.57709C16.5253 8.60137 16.5401 8.62343 16.5587 8.642L17.3587 9.442C17.3772 9.4606 17.3993 9.47535 17.4236 9.48541C17.4478 9.49548 17.4739 9.50066 17.5002 9.50066C17.5264 9.50066 17.5525 9.49548 17.5767 9.48541C17.601 9.47535 17.6231 9.4606 17.6417 9.442L18.4417 8.642C18.4603 8.62343 18.475 8.60137 18.4851 8.57709C18.4951 8.55281 18.5003 8.52678 18.5003 8.5005C18.5003 8.47422 18.4951 8.44819 18.4851 8.42391C18.475 8.39963 18.4603 8.37757 18.4417 8.359L17.6417 7.559C17.6231 7.54028 17.6009 7.52543 17.5766 7.51531C17.5522 7.50518 17.526 7.49998 17.4997 7.5Z" fill="#6366F1"/>
</g>
<defs>
<clipPath id="clip0_273_303">
<rect width="24" height="24" fill="white"/>
</clipPath>
</defs>
</svg>
